<svg width="14" height="13" viewBox="0 0 14 13" fill="none" xmlns="http://www.w3.org/2000/svg">
<path d="M6.30531 0.479697C6.53426 -0.159898 7.46574 -0.159899 7.69469 0.479696L8.90698 3.86639C9.00798 4.14854 9.27914 4.33985 9.58669 4.34594L13.2782 4.41899C13.9754 4.43279 14.2632 5.29305 13.7076 5.70214L10.7653 7.86828C10.5201 8.04875 10.4166 8.3583 10.5056 8.64421L11.5748 12.0761C11.7768 12.7242 11.0232 13.2558 10.4508 12.8691L7.42008 10.8211C7.16759 10.6505 6.83241 10.6505 6.57992 10.8211L3.54919 12.8691C2.97683 13.2558 2.22323 12.7242 2.42516 12.0761L3.49436 8.64421C3.58343 8.3583 3.47986 8.04875 3.23473 7.86829L0.292443 5.70214C-0.263223 5.29305 0.0246221 4.43279 0.721786 4.41899L4.41331 4.34594C4.72086 4.33985 4.99202 4.14854 5.09302 3.86639L6.30531 0.479697Z" fill="#FF8A00"/>
</svg>
